<svg width="960" height="640" viewBox="0 0 960 640" fill="none" xmlns="http://www.w3.org/2000/svg" role="img" aria-labelledby="title desc">
  <title id="title">Data model placeholder</title>
  <desc id="desc">A physics-informed data modelling schematic.</desc>
  <rect width="960" height="640" rx="24" fill="#0A0F15"/>
  <g stroke="#40505A" stroke-width="1">
    <path d="M100 510H860M100 430H860M100 350H860M100 270H860M100 190H860M100 110H860"/>
  </g>
  <path d="M120 484C190 464 232 362 306 346C382 330 410 416 486 392C560 368 612 208 690 196C756 186 792 246 840 220" stroke="#5BE6FF" stroke-width="4" stroke-linecap="round"/>
  <path d="M120 500C196 470 242 392 318 368C398 342 460 360 532 326C608 290 664 218 742 200C788 190 816 196 840 204" stroke="#DBB362" stroke-width="3" stroke-linecap="round"/>
  <g fill="#EEF2F3" opacity=".75">
    <circle cx="168" cy="470" r="8"/><circle cx="246" cy="392" r="6"/><circle cx="318" cy="368" r="8"/><circle cx="410" cy="416" r="6"/><circle cx="486" cy="392" r="8"/>
    <circle cx="560" cy="368" r="6"/><circle cx="612" cy="208" r="7"/><circle cx="690" cy="196" r="8"/><circle cx="792" cy="246" r="6"/><circle cx="840" cy="220" r="8"/>
  </g>
  <text x="54" y="590" fill="#97A5AB" font-family="Inter, Arial, sans-serif" font-size="24">Representative output placeholder: learned response / diagnostics</text>
</svg>
