<svg width="960" height="640" viewBox="0 0 960 640" fill="none" xmlns="http://www.w3.org/2000/svg" role="img" aria-labelledby="title desc">
  <title id="title">DEM assembly placeholder</title>
  <desc id="desc">A stylized DEM sample under triaxial loading.</desc>
  <rect width="960" height="640" rx="24" fill="#0A0F15"/>
  <rect x="300" y="80" width="360" height="440" rx="28" fill="#121A23" stroke="#5BE6FF" stroke-opacity=".35" stroke-width="2"/>
  <g fill="#EEF2F3" opacity=".9">
    <circle cx="362" cy="164" r="22"/><circle cx="432" cy="144" r="18"/><circle cx="512" cy="178" r="25"/><circle cx="590" cy="146" r="20"/>
    <circle cx="386" cy="238" r="24"/><circle cx="470" cy="252" r="19"/><circle cx="552" cy="234" r="22"/><circle cx="616" cy="260" r="17"/>
    <circle cx="348" cy="326" r="19"/><circle cx="432" cy="332" r="24"/><circle cx="512" cy="318" r="18"/><circle cx="596" cy="342" r="24"/>
    <circle cx="384" cy="414" r="23"/><circle cx="470" cy="432" r="18"/><circle cx="548" cy="408" r="21"/><circle cx="616" cy="442" r="17"/>
  </g>
  <path d="M480 34V76M480 524V578" stroke="#DBB362" stroke-width="8" stroke-linecap="round"/>
  <path d="M454 62L480 34L506 62M454 550L480 578L506 550" stroke="#DBB362" stroke-width="6" stroke-linecap="round" stroke-linejoin="round"/>
  <path d="M230 292H298M662 292H730" stroke="#5BE6FF" stroke-opacity=".72" stroke-width="5" stroke-linecap="round"/>
  <text x="54" y="590" fill="#97A5AB" font-family="Inter, Arial, sans-serif" font-size="24">Representative output placeholder: DEM sample / loading protocol</text>
</svg>
