<svg width="1200" height="630" viewBox="0 0 1200 630" fill="none" xmlns="http://www.w3.org/2000/svg" role="img" aria-labelledby="title desc">
  <title id="title">Open Graph preview</title>
  <desc id="desc">Open Graph image for the personal academic website.</desc>
  <rect width="1200" height="630" fill="#070A0E"/>
  <circle cx="988" cy="116" r="250" fill="#5BE6FF" opacity=".08"/>
  <circle cx="126" cy="540" r="260" fill="#DBB362" opacity=".09"/>
  <g stroke="#5BE6FF" stroke-opacity=".3" stroke-width="2">
    <path d="M110 136L230 206L358 150L508 252L668 178L842 292L1038 208"/>
    <path d="M154 444L310 364L474 414L636 328L810 392L1038 342"/>
  </g>
  <g fill="#EED3AB" opacity=".9">
    <circle cx="110" cy="136" r="8"/><circle cx="230" cy="206" r="7"/><circle cx="358" cy="150" r="9"/><circle cx="508" cy="252" r="7"/><circle cx="668" cy="178" r="9"/><circle cx="842" cy="292" r="7"/><circle cx="1038" cy="208" r="8"/>
  </g>
  <text x="86" y="344" fill="#EEF2F3" font-family="Georgia, serif" font-size="70">Pramay [Surname placeholder]</text>
  <text x="90" y="402" fill="#5BE6FF" font-family="Inter, Arial, sans-serif" font-size="26" letter-spacing="4">GRANULAR MECHANICS / COMPUTATIONAL SIMULATION</text>
  <text x="90" y="462" fill="#97A5AB" font-family="Inter, Arial, sans-serif" font-size="30">Constitutive modelling, wave propagation, DEM, and contact mechanics</text>
</svg>
