<svg width="960" height="600" viewBox="0 0 960 600" fill="none" xmlns="http://www.w3.org/2000/svg" role="img" aria-labelledby="title desc">
  <title id="title">Triaxial simulator preview</title>
  <desc id="desc">Mock interface preview for the interactive triaxial simulator.</desc>
  <rect width="960" height="600" rx="24" fill="#0A0F15"/>
  <rect x="48" y="48" width="864" height="504" rx="18" fill="#111922" stroke="#5BE6FF" stroke-opacity=".28"/>
  <rect x="72" y="82" width="230" height="424" rx="12" fill="#0A0F15" stroke="#40505A"/>
  <rect x="332" y="82" width="300" height="424" rx="12" fill="#0A0F15" stroke="#40505A"/>
  <rect x="662" y="82" width="214" height="424" rx="12" fill="#0A0F15" stroke="#40505A"/>
  <rect x="418" y="134" width="126" height="286" rx="48" stroke="#5BE6FF" stroke-opacity=".55" stroke-width="3"/>
  <g fill="#EEF2F3" opacity=".85">
    <circle cx="454" cy="188" r="12"/><circle cx="496" cy="180" r="10"/><circle cx="520" cy="226" r="14"/><circle cx="454" cy="246" r="13"/>
    <circle cx="494" cy="282" r="11"/><circle cx="444" cy="322" r="14"/><circle cx="526" cy="336" r="10"/><circle cx="484" cy="382" r="13"/>
  </g>
  <path d="M481 102V132M481 422V458" stroke="#DBB362" stroke-width="6" stroke-linecap="round"/>
  <g stroke="#5BE6FF" stroke-width="3" stroke-linecap="round">
    <path d="M696 418C728 382 748 322 778 300C808 278 820 218 842 178"/>
    <path d="M696 438C734 426 764 398 792 352C818 310 838 278 852 260" opacity=".5"/>
  </g>
  <g fill="#40505A">
    <rect x="102" y="130" width="160" height="8" rx="4"/><rect x="102" y="196" width="136" height="8" rx="4"/><rect x="102" y="262" width="176" height="8" rx="4"/>
    <rect x="102" y="328" width="118" height="8" rx="4"/><rect x="102" y="394" width="150" height="8" rx="4"/>
  </g>
  <text x="72" y="548" fill="#97A5AB" font-family="Inter, Arial, sans-serif" font-size="20">Replace with live simulator screenshot or short video preview</text>
</svg>
